<svg xmlns="http://www.w3.org/2000/svg" xmlns:xlink="http://www.w3.org/1999/xlink" viewBox="0 0 803.02 473.04"><defs><style>.cls-1{fill:url(#linear-gradient);}.cls-2{fill:#eac5a2;}.cls-3{fill:#464353;}.cls-14,.cls-4{opacity:0.1;}.cls-4,.cls-6{isolation:isolate;}.cls-5{fill:#a0a0a0;}.cls-6{opacity:0.05;}.cls-7{fill:#3f3d56;}.cls-8{fill:#fff;}.cls-9{opacity:0.8;}.cls-10{fill:none;stroke:#3f3d56;stroke-miterlimit:10;stroke-width:3px;}.cls-11{fill:#64a0ff;}.cls-12{fill:#3acc6c;}.cls-13{fill:#ff6584;}.cls-15{fill:#fdd7ad;}.cls-16{fill:#805333;}</style><linearGradient id="linear-gradient" x1="-146.19" y1="703.61" x2="-146.19" y2="704.51" gradientTransform="matrix(294.56, 0, 0, -355.83, 43259.85, 250834.79)" gradientUnits="userSpaceOnUse"><stop offset="0" stop-color="gray" stop-opacity="0.25"/><stop offset="0.54" stop-color="gray" stop-opacity="0.12"/><stop offset="1" stop-color="gray" stop-opacity="0.1"/></linearGradient></defs><title>chris-1</title><g id="Layer_2" data-name="Layer 2"><g id="Layer_1-2" data-name="Layer 1"><path class="cls-1" d="M128.89,151.57c.23.69.45,1.37.65,2.06,1.09,3.76,1.61,7.69-.27,11a11.59,11.59,0,0,1-6.12,4.76,4,4,0,0,0-1.37-1.16c-2.18-1.09-4.8.23-6.63,1.87-3.32,3-6,7.3-10.38,8.29-1.57.36-3.31.29-4.62,1.25A10.6,10.6,0,0,0,98,182.43a9.87,9.87,0,0,1-8.48,4.22c-1.51-.07-3.31-.42-4.35.69-.77.83-.83,2.14-1.66,2.93-1.11,1.09-2.93.56-4.48.49A9,9,0,0,0,71.65,195a27.71,27.71,0,0,0-3.32,8.29v.05a5.89,5.89,0,0,0-.61.51,8.8,8.8,0,0,0-1.83,3A141.83,141.83,0,0,0,54.2,255a4.9,4.9,0,0,1-.53,2.34,11.62,11.62,0,0,1-1.21,1.32,4.66,4.66,0,0,0,.65,6.55l.12.08a5,5,0,0,1,.88-1.17c-.09.38-.17.75-.23,1.09a29.72,29.72,0,0,0-.09,7.3q1.17,17.26,2.38,34.52c.22,3.26.45,6.51.75,9.76q.87,9.44,2.48,18.79a8.45,8.45,0,0,0,.19.84c-6.76,2.14-12.77,6-15.3,12.5-.88,2.24-1.27,4.67-2.35,6.82-1.19,2.35-3.14,4.24-4.43,6.54-2.23,4-2.33,8.82-1.52,13.26,1.57,8.67,6.25,16.41,12.44,22.71h-.84a12.92,12.92,0,0,0-5.66,2c-13.08,7.64-20.56,24-17.83,39a16.72,16.72,0,0,0,3.43,8.12,13,13,0,0,0,6,3.7A21.69,21.69,0,0,0,38,452c10.2.83,20.07-3.9,30.29-4.3a81.77,81.77,0,0,1,10.14.48q7.38.62,14.79.78c8,.19,12.55-1.95,17.68-7.95a21.45,21.45,0,0,0,3.12-4.92c4.36-.25,9.18-.63,12.66-.92l0,.48c.19,1.66.48,3.56,1.81,4.61a6.37,6.37,0,0,0,2.48,1c8.38,2.06,16.85,4.14,25.47,4.14a108.75,108.75,0,0,0,12.09-.92l15.15-1.75a75.08,75.08,0,0,1,13,2.83c4.38,1.49,8.47,3.69,12.74,5.44,9.95,4,20.65,5.47,31.24,6.88,1.81.24,3.88.41,5.21-.83,1.73-1.66,1.16-4.43.67-6.75-.2-1-.35-1.91-.47-2.87a145.92,145.92,0,0,1,20.93,7.26l1.19.53c.34,1.8,2,3.25,3.61,5.19a12.55,12.55,0,0,0,1.83,2.27,6.05,6.05,0,0,0,2.63.95,122.53,122.53,0,0,0,33.93,1.53,34.77,34.77,0,0,1,7-.23,30.09,30.09,0,0,1,5.06,1.13l9.59,2.75c7.07,2,14.31,4.07,21.65,3.62a28.58,28.58,0,0,0,4.41-.64c5.81-1.34,11.21-4.59,14-9.8,3.94-7.1,2.12-15.82,0-23.61a31.17,31.17,0,0,0-3.32-8.64,29.8,29.8,0,0,0-5.43-6c-6-5.45-13.38-11-21.35-9.61a28.49,28.49,0,0,0-7.08,2.58c-1.16.54-2.33,1.08-3.52,1.54a17.6,17.6,0,0,1-10.63.93c-1.82-.49-3.52-1.37-5.32-1.92a18.11,18.11,0,0,0-2.61-.56,45.85,45.85,0,0,0,5.05-2.66c8.93-5.47,16.06-15.36,15.07-25.94a42.92,42.92,0,0,0-2.77-10.32l-3.19-8.8c-1.37-3.81-2.8-7.7-5.31-10.87a27.49,27.49,0,0,0-10.88-7.71c-8.83-3.84-18.48-5.19-28-6.5l-.67-.09V241a6.63,6.63,0,0,0-6.63-6.63H262.86l-1.65-10.13c-1.58-9.62-3.21-19.42-7.65-28.09-2.9-5.67-7.51-11.08-13.74-12.19a13.34,13.34,0,0,1-3.57-.83c-1.83-.9-2.82-2.89-4.22-4.35-3.61-3.79-9.49-3.85-14.33-5.81-4.28-1.7-7.78-4.9-11.67-7.36S197.29,161.35,193,163a7.47,7.47,0,0,1-.09.94l-2.77-1.28a30.48,30.48,0,0,1-8.42-5.07"/><path class="cls-2" d="M103.63,436.76c-1.75-4-3.4-8.56-1.65-12.54a10.67,10.67,0,0,1,5.51-5.18A26.57,26.57,0,0,1,115,417.2a104.63,104.63,0,0,1,24.25-.33c.59,4.66-.65,9.39-1.72,13.89-1,4.14-1.53,4.76-5.81,5C128.91,435.88,104.29,438.22,103.63,436.76Z"/><ellipse class="cls-3" cx="177.45" cy="376.76" rx="118.54" ry="33.16"/><ellipse class="cls-4" cx="177.45" cy="376.76" rx="118.54" ry="33.16"/><path class="cls-2" d="M198.7,201.71a36.83,36.83,0,0,1-19,17.28,48.05,48.05,0,0,1-15.1,2.87,43.18,43.18,0,0,1-16.66-2c-7.1-2.57-13-7.83-17.41-14s-7.46-13.13-10.1-20.18c-1.4-3.67-2.72-7.59-2.07-11.46,4.27-1,9-2.4,11.15-6.19,1.88-3.25,1.36-7.14.28-10.86-.31-1.05-.67-2.09-1-3.09-.84-2.41-3.69-7-1.66-9,1.27-1.3,6.58-2,8.41-2.81,5.65-2.6,10.86-6.37,17.06-7.6,5.35-1.07,10.9-.07,16.25,1a5.39,5.39,0,0,1,2,.72,4.87,4.87,0,0,1,1.49,2.24c1.52,3.72,2.42,7.82,3.65,11.69,1.27,4.05,2.91,7.86,6,10.73a30.55,30.55,0,0,0,8.43,5l7.34,3.36a9.67,9.67,0,0,1,3.48,2.25,8.86,8.86,0,0,1,1.66,4.51,42.12,42.12,0,0,1-4.17,25.49Z"/><path class="cls-4" d="M175.93,150.35a38.14,38.14,0,0,1-46.15,6.84c-.3-1.05-.66-2.09-1-3.09-.84-2.41-3.7-7-1.66-9,1.27-1.3,6.58-2,8.41-2.81,5.65-2.6,10.85-6.37,17-7.6,5.36-1.07,10.9-.07,16.26,1a5.57,5.57,0,0,1,2,.72,4.87,4.87,0,0,1,1.49,2.24C173.81,142.37,174.71,146.48,175.93,150.35Z"/><path class="cls-5" d="M264.61,246l-3.13-19c-1.58-9.53-3.21-19.23-7.64-27.81-2.91-5.62-7.53-11-13.75-12.09a13.39,13.39,0,0,1-3.59-.83c-1.82-.88-2.81-2.85-4.21-4.31-3.62-3.75-9.5-3.81-14.34-5.72-4.28-1.66-7.78-4.85-11.67-7.29s-8.75-4.14-13.06-2.58c-.7,7.42-1.43,15-4.58,21.76a32.57,32.57,0,0,1-43.27,15.77,33.12,33.12,0,0,1-5.86-3.52c-7.38-5.57-12.12-14.15-14.32-23.12-.54-2.19-1.16-4.7-3.17-5.71-2.18-1.09-4.8.23-6.63,1.84-3.32,3-6,7.24-10.39,8.24-1.57.37-3.32.29-4.62,1.24a10.5,10.5,0,0,0-2.16,2.8,10,10,0,0,1-8.48,4.19c-1.52-.07-3.32-.42-4.35.68-.77.84-.84,2.13-1.66,2.9-1.12,1.08-2.93.55-4.49.49a9.08,9.08,0,0,0-7.39,4.15,26.55,26.55,0,0,0-3.31,8.17C77.6,226.47,85.89,246.67,95,266.85a5.13,5.13,0,0,1,.65,2.48,5.88,5.88,0,0,1-1.13,2.49c-4.44,7.14-4.3,16.12-3.81,24.5s1.09,17.26-2.66,24.77c-1,2.07-2.34,4-3.31,6-2.27,4.68-3.1,19.63-1.77,24.65H270.33c-3.58-9.82-2.22-29.53-1.47-40,.52-7.3-.83-14.58-1.41-21.88C266.18,275,267.08,260.89,264.61,246Z"/><path class="cls-2" d="M54.18,267.74a29.24,29.24,0,0,0-.1,7.24l2.38,34.21c.22,3.22.45,6.44.75,9.66.57,6.24,1.43,12.43,2.48,18.61a3.32,3.32,0,0,0,3.4,3.23c10.49,2.22,21.32,2.13,32,1.52,16.33-.91,32.64-3,49-2.63,4.21.09,9.12,0,11.67-3.32s1.08-8.68-2.26-11.35-7.86-3.32-12.13-3.32c-5.67-.06-11.33.75-17,.41a83.29,83.29,0,0,1-15.27-2.81l-14.09-3.5a54.4,54.4,0,0,1,3.7-12.35c2.77-7.18,5.36-14.61,5.41-22.31s-2.86-15.8-9.16-20.21c-5.19-3.62-11.87-4.3-18.2-4.15-4.6.14-12.55-1-16.75.84C56.72,259,54.8,264.48,54.18,267.74Z"/><path class="cls-3" d="M274.2,346c2.76-1,5.8-.67,8.76-.27,9.53,1.3,19.19,2.63,28,6.44a27.5,27.5,0,0,1,10.89,7.63c2.49,3.14,3.94,7,5.32,10.78l3.18,8.72a42.17,42.17,0,0,1,2.78,10.22c1,10.44-6.15,20.28-15.13,25.7s-19.54,7.35-29.84,9.37-20.63,4.27-30.88,6.64A124.31,124.31,0,0,1,242.77,434c-11,1.25-22.45-.58-32.88,3-4.14,1.45-8.21,3.6-12.51,4.61a76.67,76.67,0,0,1-8.66,1.31L169,445.27a106.41,106.41,0,0,1-12.1.93c-8.62,0-17.1-2-25.47-4.08a6.6,6.6,0,0,1-2.49-1c-1.33-1.05-1.61-2.9-1.81-4.57q-1.26-11.12-2.22-22.26c-.2-2.41-.35-5,1-7.05,1.66-2.49,4.89-3.27,7.84-3.75a204.37,204.37,0,0,1,37.87-2.63c4.82-4.81,12.76-4.84,19.07-7.46a56,56,0,0,0,6.72-3.65,87.81,87.81,0,0,1,36.91-11.67,33.78,33.78,0,0,0,7.55-1.07c4.89-1.52,9.34-5.64,14.35-4.63.62-1.72,1.06-4,2.49-5.19.71-.61,1.59-1,2.25-1.66,1.38-1.4,1.5-3.61,1.3-5.56s-.67-4-.17-5.87a8.2,8.2,0,0,1,.92-2.05C265.45,347.75,269.21,345.55,274.2,346Z"/><path class="cls-6" d="M274.2,346c2.76-1,5.8-.67,8.76-.27,9.53,1.3,19.19,2.63,28,6.44a27.5,27.5,0,0,1,10.89,7.63c2.49,3.14,3.94,7,5.32,10.78l3.18,8.72a42.17,42.17,0,0,1,2.78,10.22c1,10.44-6.15,20.28-15.13,25.7s-19.54,7.35-29.84,9.37-20.63,4.27-30.88,6.64A124.31,124.31,0,0,1,242.77,434c-11,1.25-22.45-.58-32.88,3-4.14,1.45-8.21,3.6-12.51,4.61a76.67,76.67,0,0,1-8.66,1.31L169,445.27a106.41,106.41,0,0,1-12.1.93c-8.62,0-17.1-2-25.47-4.08a6.6,6.6,0,0,1-2.49-1c-1.33-1.05-1.61-2.9-1.81-4.57q-1.26-11.12-2.22-22.26c-.2-2.41-.35-5,1-7.05,1.66-2.49,4.89-3.27,7.84-3.75a204.37,204.37,0,0,1,37.87-2.63c4.82-4.81,12.76-4.84,19.07-7.46a56,56,0,0,0,6.72-3.65,87.81,87.81,0,0,1,36.91-11.67,33.78,33.78,0,0,0,7.55-1.07c4.89-1.52,9.34-5.64,14.35-4.63.62-1.72,1.06-4,2.49-5.19.71-.61,1.59-1,2.25-1.66,1.38-1.4,1.5-3.61,1.3-5.56s-.67-4-.17-5.87a8.2,8.2,0,0,1,.92-2.05C265.45,347.75,269.21,345.55,274.2,346Z"/><path class="cls-7" d="M111.26,441.88c-5.13,5.94-9.65,8.06-17.68,7.87q-7.41-.17-14.81-.77a83.84,83.84,0,0,0-10.14-.47c-10.23.39-20.11,5.08-30.31,4.26a21.06,21.06,0,0,1-4.45-.84,12.92,12.92,0,0,1-6-3.65,16.52,16.52,0,0,1-3.43-8,37.9,37.9,0,0,1,17.84-38.64,13.06,13.06,0,0,1,5.67-2,13.34,13.34,0,0,1,5.73,1.26l.12.05A43.4,43.4,0,0,1,68,410.37a8,8,0,0,0,2.17,1.75,7.49,7.49,0,0,0,2.56.48l10.89.68a26,26,0,0,1,5.48.76,43.59,43.59,0,0,1,5.75,2.49c5.86,2.62,12.36,3.31,18.69,4.32a2.81,2.81,0,0,1,1.66.67,2.67,2.67,0,0,1,.52,1.07,21.16,21.16,0,0,1-4.43,19.28Z"/><path class="cls-4" d="M53.76,400.9a65.44,65.44,0,0,0-10.9,13.62,68.16,68.16,0,0,0-8.9,27A49.33,49.33,0,0,0,33.87,452a13,13,0,0,1-6-3.66,16.52,16.52,0,0,1-3.43-8.05A37.9,37.9,0,0,1,42.24,401.6a13.06,13.06,0,0,1,5.67-2,13.34,13.34,0,0,1,5.73,1.26Z"/><path class="cls-2" d="M264.72,421.52c6.1-.17,12.93-.48,17.41,3.63,4.27,3.88,4.83,10.28,5.12,16l.32,6.69a13.33,13.33,0,0,1-.63,6c-1.46,3.31-5.47,4.91-9.12,4.72s-7-1.79-10.36-3.23a145.72,145.72,0,0,0-28.18-8.88q.48-6.94,1.57-13.81c.51-3.18.59-8.49,2.71-11.13s5.18-1.27,8.23-.76a66.68,66.68,0,0,0,12.94.69Z"/><path class="cls-3" d="M103.71,354.3c0,.83-1.3,0-1.42-.89-.91-6.7-6.23-12.23-12.43-14.92s-13.27-2.83-20-2.19c-10.16,1-21.55,4.85-25.27,14.34-.88,2.23-1.27,4.63-2.35,6.76-1.19,2.34-3.14,4.2-4.44,6.47-2.23,3.93-2.32,8.75-1.51,13.19,2.16,11.86,10.27,22,20.09,29s21.31,11.21,32.75,15A568.07,568.07,0,0,0,182,443.24a88.89,88.89,0,0,1,15.16,3.13c4.37,1.46,8.47,3.66,12.75,5.39,9.94,4,20.65,5.42,31.25,6.82,1.81.23,3.88.4,5.21-.84,1.73-1.6,1.15-4.38.67-6.68a35.91,35.91,0,0,1,4.23-25.5c1.77-3,4.08-6,3.75-9.5-.4-4-4.41-6.88-8.41-7.52s-8.06.3-12.07.83a6.43,6.43,0,0,1-4.1-.41,8.08,8.08,0,0,1-1.61-1.42,18.17,18.17,0,0,0-21.17-3c-1.48.83-3.73-1-5.27-1.72L184.94,395c-20-9.06-40.15-18.16-61.34-23.9a12.83,12.83,0,0,1-4.72-2c-1.06-.84-1.81-2-2.78-2.88-2.11-2-5.06-2.79-7.59-4.21S103.13,357.15,103.71,354.3Z"/><path class="cls-7" d="M372.46,462.64c-2.79,5.16-8.19,8.38-14,9.7A27.64,27.64,0,0,1,354,473c-7.34.46-14.58-1.57-21.65-3.58l-9.6-2.7a30.09,30.09,0,0,0-5.06-1.13,35.5,35.5,0,0,0-7,.24,124.12,124.12,0,0,1-34-1.52,6.17,6.17,0,0,1-2.63-.94,12.77,12.77,0,0,1-1.83-2.25c-2.61-3.14-5.42-5-2.33-9.12,1.79-2.4,5.09-3.6,6.47-6.36s.5-6.68-.32-9.54c-1.12-3.93-4.8-5.63-6.12-9.25-1-2.72.67-5.89,3.17-7.38a13.15,13.15,0,0,1,8.45-1.22c2.88.38,5.7,1.19,8.59,1.42,8.51.68,17.2-3.71,25.36-1.24,1.8.55,3.5,1.42,5.33,1.9a17.6,17.6,0,0,0,10.63-.92c1.19-.45,2.36-1,3.52-1.52a28.91,28.91,0,0,1,7.09-2.56c8-1.37,15.35,4.15,21.36,9.53a30,30,0,0,1,5.43,5.88,29.45,29.45,0,0,1,3.32,8.57C374.44,447,376.26,455.59,372.46,462.64Z"/><path class="cls-4" d="M372.46,462.63c-2.79,5.17-8.19,8.38-14,9.71a27.16,27.16,0,0,0,2.94-14.22c-.5-7.89-4-15.31-8.38-21.86A77.23,77.23,0,0,0,343.79,425c-2.63-2.66-5.87-4.77-8.71-7.19a28,28,0,0,1,7.09-2.56c8-1.37,15.35,4.14,21.36,9.52a30.65,30.65,0,0,1,5.43,5.89,29.56,29.56,0,0,1,3.32,8.56C374.44,447,376.26,455.59,372.46,462.63Z"/><path class="cls-5" d="M68.06,206.91a8.5,8.5,0,0,0-1.84,2.94,139.14,139.14,0,0,0-11.69,47.76,4.74,4.74,0,0,1-.54,2.31,9,9,0,0,1-1.22,1.32,4.58,4.58,0,0,0,.55,6.45c.08.06.15.13.23.18,1.37-2.57,4.65-3.41,7.56-3.63,13.93-1.11,27.54,5.37,41.52,4.89-1-3.41-2.41-6.69-3.21-10.13-3.56-15.32,5.31-32-.12-46.73-1.09-3-2.9-5.85-5.76-7.15a15.82,15.82,0,0,0-3.69-1c-3.53-.64-10.56-3.37-14-2.28-1.26.41-1.76,1.6-2.8,2.31C71.49,205.2,69.38,205.57,68.06,206.91Z"/><rect class="cls-7" x="97.46" y="237.08" width="184.86" height="117.71" rx="9.49"/><circle class="cls-8" cx="189.47" cy="295.93" r="4.97"/><g class="cls-9"><line class="cls-10" x1="273.58" y1="139.12" x2="791.72" y2="139.12"/><path class="cls-10" d="M319.61,139.11s24.78,3.44,11.95-23.14,34.81-21.55,34.81-21.55"/><path class="cls-10" d="M484.63,139.11s24.78-3.43,11.95,23.16,34.81,21.55,34.81,21.55"/><path class="cls-10" d="M722.23,139.11s-24.78-3.43-11.94,23.16-34.82,21.55-34.82,21.55"/><line class="cls-10" x1="675.47" y1="183.81" x2="538.75" y2="183.81"/><circle class="cls-11" cx="273.58" cy="139.12" r="15.13"/><circle class="cls-12" cx="366.63" cy="94.2" r="15.13"/><circle class="cls-11" cx="366.63" cy="139.12" r="15.13"/><circle class="cls-11" cx="426.68" cy="139.12" r="15.13"/><circle class="cls-13" cx="531.64" cy="183.59" r="15.13"/><circle class="cls-13" cx="610.96" cy="183.59" r="15.13"/><circle class="cls-11" cx="606.82" cy="139.12" r="15.13"/><circle class="cls-11" cx="787.89" cy="139.12" r="15.13"/><circle class="cls-11" cx="713.82" cy="139.12" r="15.13"/><rect class="cls-11" x="248.17" width="50.76" height="34.98"/><rect class="cls-12" x="341.44" width="50.76" height="34.98"/><rect class="cls-13" x="506.05" width="50.76" height="34.98"/></g><g class="cls-14"><path class="cls-11" d="M71.57,146.48s-62-26.07-70.1,21c0,0-4.23,7.33,1.66,13.38,0,0,1.27-3.25,7.25.11a31.12,31.12,0,0,0,6.77,2.75,15.21,15.21,0,0,0,9.63-.52h0s20.38-1.1,37.53-27.77c0,0,7.35-4.54,7.71-6.25L59.74,150s.94,9-4.15,14.39c0,0,4.51-14,2.35-14.35-.44-.08-6.49.71-6.49.71s1.57,15.65-6.63,23.74c0,0,7.61-15.91,4.3-23.45l-9.07,1.74s2.49,16.46-6.48,26c0,0,7.38-16.91,4.52-25.5l-8.68,2.91s2.09,16.09-5.41,24c0,0,6.55-20.4,3.47-23.21,0,0-7.81,3.17-9.48,5,0,0,1.24,11.6-3.53,15.79,0,0,2.93-14.09,1.47-14.67,0,0-9.06,6.83-11.83,12.72,0,0,3.45-9,10.7-14.09,0,0-6.09-1-10.78,1.51,0,0,3.14-6,13-3.14,0,0,7.28-5,8.74-5,0,0-9.31-4.15-16-3.63,0,0,7.21-4.15,18.3,2.78l8.66-3.13s-12-6.16-18-6.13c0,0,8-3.1,20.28,5.52l8.87-1.81s-9.95-6.09-16.65-7.51c0,0,8-1.28,19.21,7.09l6.06-.51s-7.33-4.33-9.56-5.38-2.12-1.73-2.12-1.73a28.92,28.92,0,0,1,14.21,6.78S71.53,147.25,71.57,146.48Z"/></g><g class="cls-14"><path class="cls-11" d="M69.29,99.76S47.34,49,15.71,72.26c0,0-6.68,1.94-6.63,8.87,0,0,2.6-1.21,4.25,4.2a25.08,25.08,0,0,0,2.49,5.48,12.36,12.36,0,0,0,6,5.18h0S34.57,107,60,100.87c0,0,7,1.49,8.15.69L60.35,95s-4.57,5.88-10.68,6.16c0,0,10.63-5.71,9.57-7.18C59,93.72,55,90.75,55,90.75s-8,10.18-17.41,10.34c0,0,13.59-5.12,15.92-11.48L47.1,85.46S39.05,96.65,28.27,97.24c0,0,14-5.84,17.22-12.57l-6.82-3.21S30.74,92.23,21.78,92.64c0,0,15.52-8.39,15.28-11.81,0,0-6.44-2.57-8.49-2.42,0,0-5.86,7.58-11.09,7.37,0,0,9.77-6.71,9.24-7.88,0,0-9.29-1.11-14.28.84,0,0,7.18-3.39,14.38-2.28,0,0-3-4.08-7.25-5.22,0,0,5.27-1.76,9.5,5.51,0,0,7.19,1.16,8,2,0,0-3.16-7.79-7.46-11.29,0,0,6.63,1.65,9.29,12.08l6.93,3.07s-3.63-10.51-7.23-13.92c0,0,6.52,2.72,8.91,14.84l6.3,4s-2.44-9.29-5.61-14c0,0,5.5,3.83,7.37,15.16l3.89,3.15s-1.89-6.74-2.62-8.63S56.61,81,56.61,81a23.64,23.64,0,0,1,4.55,12.17S68.82,100.18,69.29,99.76Z"/></g><path class="cls-15" d="M185.76,96.18a12.71,12.71,0,0,0-1-4.94c-2.42-5.74-9.2-8.07-15-6-3.19,1.16-9.16,2.44-19.93,2.44S133,86.44,129.86,85.28c-5.85-2.11-12.63.22-15.06,6a12.66,12.66,0,0,0-1,4.94l-.06,19.28c0,13.29,1,27.91,11.06,37.42,3.59,3.41,7.83,6,11.92,8.82s7.69,6.43,13,6.43,8.91-3.66,13-6.43,8.32-5.41,11.92-8.82c10-9.51,11.11-24.37,11.11-37.66v-19Z"/><path class="cls-16" d="M183.19,70.25l-17-9.13a3.21,3.21,0,0,1-1.68-2.83V53.78a3.25,3.25,0,0,0-4-3.15L134.62,57.1a8.89,8.89,0,0,0-5.76,4.62l-.2.42a8.09,8.09,0,0,1-7.21,4.42,11.73,11.73,0,0,0-9.11,4.4l-2.64,3.3a11.79,11.79,0,0,0-2.54,6.55l-1.65,24.74a11,11,0,0,0,1.43,6.22l6.81,11.92h.2c-.15-2.76-.2-5.52-.2-8.23l.06-19.28a12.49,12.49,0,0,1,1-4.94c2.42-5.74,9.2-8.07,15.05-6,3.18,1.15,9.15,2.44,19.92,2.44s16.74-1.29,19.93-2.44c5.85-2.11,12.63.22,15,6a12.67,12.67,0,0,1,1,4.94v19c0,2.77-.06,5.61-.23,8.46h.17l2.66-6.21a45.67,45.67,0,0,0,3.69-18V85.08a16.85,16.85,0,0,0-8.86-14.83"/></g></g></svg>