<?xml version="1.0" encoding="utf-8"?>
<!-- Generator: Adobe Illustrator 24.0.0, SVG Export Plug-In . SVG Version: 6.00 Build 0)  -->
<svg version="1.1" xmlns="http://www.w3.org/2000/svg" xmlns:xlink="http://www.w3.org/1999/xlink" x="0px" y="0px"
	 viewBox="0 0 1144 617.3" style="enable-background:new 0 0 1144 617.3;" xml:space="preserve">
<style type="text/css">
	.st0{opacity:0.1;fill:#6C63FF;enable-background:new    ;}
	.st1{opacity:0.2;fill:#6C63FF;enable-background:new    ;}
	.st2{fill:#6C63FF;}
	.st3{opacity:0.7;fill:#6C63FF;enable-background:new    ;}
	.st4{opacity:0.4;fill:#6C63FF;enable-background:new    ;}
	.st5{fill:#504F60;}
	.st6{fill:#9C9CA1;}
</style>
<g id="aa7bae02-e79e-4d6b-a496-aba15f39787c">
	<title>developer activity</title>
	<path class="st0" d="M1144,396.2c0,16.8-2.3,33.5-6.8,49.6c-4.4,15.6-10.9,30.5-19.3,44.3c0,50.1-33.8,93.4-82.9,114
		c-20.5,8.5-42.5,12.9-64.7,12.8H217.2c-40.3,0-77.6-10.9-108.1-29.4c-8.8-5.3-17.1-11.3-24.8-17.9c-34-29.2-55.1-69.6-55.1-114.2
		C10,426.1-0.1,391.8,0,356.7c0-73.4,43.4-136.4,105.6-164.3c8.3-3.7,16.8-6.7,25.5-9.1c3.1-0.8,6.2-1.6,9.4-2.3
		c8.4-1.8,16.9-3,25.5-3.5c3.1-0.2,6.2-0.3,9.4-0.3h1.7c3.5,0,6.9,0.1,10.3,0.3l1.1-1.9c1.4-2.3,2.8-4.6,4.2-6.8
		c2.6-4.1,5.3-8.1,8.2-12.1c3-4.2,6.1-8.3,9.4-12.4l0.8-1c1.8-2.3,3.7-4.6,5.6-6.8c6-7,12.3-13.8,19-20.4
		C307.8,45.5,420.7,0,547.7,0c98.8,0,189.2,27.6,258.3,73.1c26.2-14.8,55.8-22.6,85.9-22.6c97.7,0,177,80.4,177,179.5
		c0,6.3-0.3,12.5-1,18.8C1115.8,282.7,1144.2,337.7,1144,396.2z"/>
	<path class="st1" d="M235.7,116.2v20.4h-19C222.6,129.5,228.9,122.8,235.7,116.2z"/>
	<rect x="245" y="111" class="st1" width="25.5" height="25.5"/>
	<rect x="279.9" y="111" class="st1" width="25.5" height="25.5"/>
	<rect x="314.8" y="111" class="st1" width="25.5" height="25.5"/>
	<rect x="349.6" y="111" class="st1" width="25.5" height="25.5"/>
	<rect x="384.5" y="111" class="st1" width="25.5" height="25.5"/>
	<rect x="419.4" y="111" class="st2" width="25.5" height="25.5"/>
	<rect x="454.2" y="111" class="st1" width="25.5" height="25.5"/>
	<rect x="489.1" y="111" class="st1" width="25.5" height="25.5"/>
	<rect x="523.9" y="111" class="st1" width="25.5" height="25.5"/>
	<rect x="558.8" y="111" class="st2" width="25.5" height="25.5"/>
	<rect x="593.7" y="111" class="st1" width="25.5" height="25.5"/>
	<rect x="628.5" y="111" class="st1" width="25.5" height="25.5"/>
	<rect x="663.4" y="111" class="st1" width="25.5" height="25.5"/>
	<rect x="698.3" y="111" class="st1" width="25.5" height="25.5"/>
	<rect x="733.1" y="111" class="st1" width="25.5" height="25.5"/>
	<rect x="768" y="111" class="st1" width="25.5" height="25.5"/>
	<rect x="802.9" y="111" class="st2" width="25.5" height="25.5"/>
	<rect x="837.7" y="111" class="st2" width="25.5" height="25.5"/>
	<rect x="872.6" y="111" class="st1" width="25.5" height="25.5"/>
	<rect x="907.5" y="111" class="st1" width="25.5" height="25.5"/>
	<rect x="942.3" y="111" class="st2" width="25.5" height="25.5"/>
	<rect x="977.2" y="111" class="st2" width="25.5" height="25.5"/>
	<path class="st2" d="M200.8,156.7v12.1h-8.2C195.2,164.7,197.9,160.7,200.8,156.7z"/>
	<rect x="210.1" y="143.3" class="st1" width="25.5" height="25.5"/>
	<rect x="245" y="143.3" class="st2" width="25.5" height="25.5"/>
	<rect x="279.9" y="143.3" class="st1" width="25.5" height="25.5"/>
	<rect x="314.8" y="143.3" class="st3" width="25.5" height="25.5"/>
	<rect x="349.6" y="143.3" class="st1" width="25.5" height="25.5"/>
	<rect x="384.5" y="143.3" class="st4" width="25.5" height="25.5"/>
	<rect x="419.4" y="143.3" class="st2" width="25.5" height="25.5"/>
	<rect x="454.2" y="143.3" class="st4" width="25.5" height="25.5"/>
	<rect x="489.1" y="143.3" class="st1" width="25.5" height="25.5"/>
	<rect x="523.9" y="143.3" class="st4" width="25.5" height="25.5"/>
	<rect x="558.8" y="143.3" class="st2" width="25.5" height="25.5"/>
	<rect x="593.7" y="143.3" class="st4" width="25.5" height="25.5"/>
	<rect x="628.5" y="143.3" class="st4" width="25.5" height="25.5"/>
	<rect x="663.4" y="143.3" class="st1" width="25.5" height="25.5"/>
	<rect x="698.3" y="143.3" class="st4" width="25.5" height="25.5"/>
	<rect x="733.1" y="143.3" class="st4" width="25.5" height="25.5"/>
	<rect x="768" y="143.3" class="st1" width="25.5" height="25.5"/>
	<rect x="802.9" y="143.3" class="st1" width="25.5" height="25.5"/>
	<rect x="837.7" y="143.3" class="st4" width="25.5" height="25.5"/>
	<rect x="872.6" y="143.3" class="st1" width="25.5" height="25.5"/>
	<rect x="907.5" y="143.3" class="st2" width="25.5" height="25.5"/>
	<rect x="942.3" y="143.3" class="st2" width="25.5" height="25.5"/>
	<rect x="977.2" y="143.3" class="st2" width="25.5" height="25.5"/>
	<path class="st1" d="M131.1,183.3v17.8h-25.5v-8.7C113.8,188.8,122.3,185.7,131.1,183.3z"/>
	<polygon class="st1" points="165.9,177.6 165.9,201.2 140.4,201.2 140.4,181.1 	"/>
	<rect x="175.3" y="175.6" class="st2" width="25.5" height="25.5"/>
	<rect x="210.1" y="175.6" class="st3" width="25.5" height="25.5"/>
	<rect x="245" y="175.6" class="st2" width="25.5" height="25.5"/>
	<rect x="279.9" y="175.6" class="st3" width="25.5" height="25.5"/>
	<rect x="314.8" y="175.6" class="st3" width="25.5" height="25.5"/>
	<rect x="349.6" y="175.6" class="st1" width="25.5" height="25.5"/>
	<rect x="384.5" y="175.6" class="st4" width="25.5" height="25.5"/>
	<rect x="419.4" y="175.6" class="st4" width="25.5" height="25.5"/>
	<rect x="454.2" y="175.6" class="st2" width="25.5" height="25.5"/>
	<rect x="489.1" y="175.6" class="st1" width="25.5" height="25.5"/>
	<rect x="523.9" y="175.6" class="st4" width="25.5" height="25.5"/>
	<rect x="558.8" y="175.6" class="st2" width="25.5" height="25.5"/>
	<rect x="593.7" y="175.6" class="st1" width="25.5" height="25.5"/>
	<rect x="628.5" y="175.6" class="st4" width="25.5" height="25.5"/>
	<rect x="663.4" y="175.6" class="st1" width="25.5" height="25.5"/>
	<rect x="698.3" y="175.6" class="st2" width="25.5" height="25.5"/>
	<rect x="733.1" y="175.6" class="st1" width="25.5" height="25.5"/>
	<rect x="768" y="175.6" class="st3" width="25.5" height="25.5"/>
	<rect x="802.9" y="175.6" class="st3" width="25.5" height="25.5"/>
	<rect x="837.7" y="175.6" class="st4" width="25.5" height="25.5"/>
	<rect x="872.6" y="175.6" class="st1" width="25.5" height="25.5"/>
	<rect x="907.5" y="175.6" class="st2" width="25.5" height="25.5"/>
	<rect x="942.3" y="175.6" class="st2" width="25.5" height="25.5"/>
	<rect x="977.2" y="175.6" class="st2" width="25.5" height="25.5"/>
	<rect x="105.6" y="208" class="st1" width="25.5" height="25.5"/>
	<rect x="140.4" y="208" class="st1" width="25.5" height="25.5"/>
	<rect x="175.3" y="208" class="st1" width="25.5" height="25.5"/>
	<rect x="210.1" y="208" class="st1" width="25.5" height="25.5"/>
	<rect x="245" y="208" class="st2" width="25.5" height="25.5"/>
	<rect x="279.9" y="208" class="st3" width="25.5" height="25.5"/>
	<rect x="314.8" y="208" class="st3" width="25.5" height="25.5"/>
	<rect x="349.6" y="208" class="st1" width="25.5" height="25.5"/>
	<rect x="384.5" y="208" class="st1" width="25.5" height="25.5"/>
	<rect x="419.4" y="208" class="st4" width="25.5" height="25.5"/>
	<rect x="454.2" y="208" class="st4" width="25.5" height="25.5"/>
	<rect x="489.1" y="208" class="st2" width="25.5" height="25.5"/>
	<rect x="523.9" y="208" class="st1" width="25.5" height="25.5"/>
	<rect x="558.8" y="208" class="st4" width="25.5" height="25.5"/>
	<rect x="593.7" y="208" class="st4" width="25.5" height="25.5"/>
	<rect x="628.5" y="208" class="st4" width="25.5" height="25.5"/>
	<rect x="663.4" y="208" class="st4" width="25.5" height="25.5"/>
	<rect x="698.3" y="208" class="st1" width="25.5" height="25.5"/>
	<rect x="733.1" y="208" class="st1" width="25.5" height="25.5"/>
	<rect x="768" y="208" class="st1" width="25.5" height="25.5"/>
	<rect x="802.9" y="208" class="st1" width="25.5" height="25.5"/>
	<rect x="837.7" y="208" class="st3" width="25.5" height="25.5"/>
	<rect x="872.6" y="208" class="st3" width="25.5" height="25.5"/>
	<rect x="907.5" y="208" class="st4" width="25.5" height="25.5"/>
	<rect x="942.3" y="208" class="st1" width="25.5" height="25.5"/>
	<rect x="977.2" y="208" class="st2" width="25.5" height="25.5"/>
	<rect x="105.6" y="240.3" class="st1" width="25.5" height="25.5"/>
	<rect x="140.4" y="240.3" class="st1" width="25.5" height="25.5"/>
	<rect x="175.3" y="240.3" class="st4" width="25.5" height="25.5"/>
	<rect x="210.1" y="240.3" class="st1" width="25.5" height="25.5"/>
	<rect x="245" y="240.3" class="st1" width="25.5" height="25.5"/>
	<rect x="279.9" y="240.3" class="st3" width="25.5" height="25.5"/>
	<rect x="314.8" y="240.3" class="st3" width="25.5" height="25.5"/>
	<rect x="349.6" y="240.3" class="st1" width="25.5" height="25.5"/>
	<rect x="384.5" y="240.3" class="st1" width="25.5" height="25.5"/>
	<rect x="419.4" y="240.3" class="st4" width="25.5" height="25.5"/>
	<rect x="454.2" y="240.3" class="st2" width="25.5" height="25.5"/>
	<rect x="489.1" y="240.3" class="st1" width="25.5" height="25.5"/>
	<rect x="523.9" y="240.3" class="st2" width="25.5" height="25.5"/>
	<rect x="558.8" y="240.3" class="st2" width="25.5" height="25.5"/>
	<rect x="593.7" y="240.3" class="st2" width="25.5" height="25.5"/>
	<rect x="628.5" y="240.3" class="st1" width="25.5" height="25.5"/>
	<rect x="663.4" y="240.3" class="st2" width="25.5" height="25.5"/>
	<rect x="698.3" y="240.3" class="st1" width="25.5" height="25.5"/>
	<rect x="733.1" y="240.3" class="st1" width="25.5" height="25.5"/>
	<rect x="768" y="240.3" class="st1" width="25.5" height="25.5"/>
	<rect x="802.9" y="240.3" class="st1" width="25.5" height="25.5"/>
	<rect x="837.7" y="240.3" class="st1" width="25.5" height="25.5"/>
	<rect x="872.6" y="240.3" class="st3" width="25.5" height="25.5"/>
	<rect x="907.5" y="240.3" class="st1" width="25.5" height="25.5"/>
	<rect x="942.3" y="240.3" class="st1" width="25.5" height="25.5"/>
	<rect x="977.2" y="240.3" class="st2" width="25.5" height="25.5"/>
	<rect x="105.6" y="272.6" class="st1" width="25.5" height="25.5"/>
	<rect x="140.4" y="272.6" class="st1" width="25.5" height="25.5"/>
	<rect x="175.3" y="272.6" class="st1" width="25.5" height="25.5"/>
	<rect x="210.1" y="272.6" class="st4" width="25.5" height="25.5"/>
	<rect x="245" y="272.6" class="st1" width="25.5" height="25.5"/>
	<rect x="279.9" y="272.6" class="st1" width="25.5" height="25.5"/>
	<rect x="314.8" y="272.6" class="st3" width="25.5" height="25.5"/>
	<rect x="349.6" y="272.6" class="st1" width="25.5" height="25.5"/>
	<rect x="384.5" y="272.6" class="st1" width="25.5" height="25.5"/>
	<rect x="419.4" y="272.6" class="st1" width="25.5" height="25.5"/>
	<rect x="454.2" y="272.6" class="st2" width="25.5" height="25.5"/>
	<rect x="489.1" y="272.6" class="st1" width="25.5" height="25.5"/>
	<rect x="523.9" y="272.6" class="st2" width="25.5" height="25.5"/>
	<rect x="558.8" y="272.6" class="st2" width="25.5" height="25.5"/>
	<rect x="593.7" y="272.6" class="st1" width="25.5" height="25.5"/>
	<rect x="628.5" y="272.6" class="st1" width="25.5" height="25.5"/>
	<rect x="663.4" y="272.6" class="st1" width="25.5" height="25.5"/>
	<rect x="698.3" y="272.6" class="st1" width="25.5" height="25.5"/>
	<rect x="733.1" y="272.6" class="st1" width="25.5" height="25.5"/>
	<rect x="768" y="272.6" class="st1" width="25.5" height="25.5"/>
	<rect x="802.9" y="272.6" class="st1" width="25.5" height="25.5"/>
	<rect x="837.7" y="272.6" class="st1" width="25.5" height="25.5"/>
	<rect x="872.6" y="272.6" class="st1" width="25.5" height="25.5"/>
	<rect x="907.5" y="272.6" class="st1" width="25.5" height="25.5"/>
	<rect x="942.3" y="272.6" class="st4" width="25.5" height="25.5"/>
	<rect x="977.2" y="272.6" class="st2" width="25.5" height="25.5"/>
	<rect x="105.6" y="304.9" class="st3" width="25.5" height="25.5"/>
	<rect x="140.4" y="304.9" class="st3" width="25.5" height="25.5"/>
	<rect x="175.3" y="304.9" class="st3" width="25.5" height="25.5"/>
	<rect x="210.1" y="304.9" class="st3" width="25.5" height="25.5"/>
	<rect x="245" y="304.9" class="st3" width="25.5" height="25.5"/>
	<rect x="279.9" y="304.9" class="st1" width="25.5" height="25.5"/>
	<rect x="314.8" y="304.9" class="st1" width="25.5" height="25.5"/>
	<rect x="349.6" y="304.9" class="st1" width="25.5" height="25.5"/>
	<rect x="384.5" y="304.9" class="st1" width="25.5" height="25.5"/>
	<rect x="419.4" y="304.9" class="st1" width="25.5" height="25.5"/>
	<rect x="454.2" y="304.9" class="st1" width="25.5" height="25.5"/>
	<rect x="489.1" y="304.9" class="st2" width="25.5" height="25.5"/>
	<rect x="523.9" y="304.9" class="st1" width="25.5" height="25.5"/>
	<rect x="558.8" y="304.9" class="st1" width="25.5" height="25.5"/>
	<rect x="593.7" y="304.9" class="st1" width="25.5" height="25.5"/>
	<rect x="628.5" y="304.9" class="st2" width="25.5" height="25.5"/>
	<rect x="663.4" y="304.9" class="st1" width="25.5" height="25.5"/>
	<rect x="698.3" y="304.9" class="st1" width="25.5" height="25.5"/>
	<rect x="733.1" y="304.9" class="st1" width="25.5" height="25.5"/>
	<rect x="768" y="304.9" class="st1" width="25.5" height="25.5"/>
	<rect x="802.9" y="304.9" class="st1" width="25.5" height="25.5"/>
	<rect x="837.7" y="304.9" class="st1" width="25.5" height="25.5"/>
	<rect x="872.6" y="304.9" class="st1" width="25.5" height="25.5"/>
	<rect x="907.5" y="304.9" class="st1" width="25.5" height="25.5"/>
	<rect x="942.3" y="304.9" class="st1" width="25.5" height="25.5"/>
	<rect x="977.2" y="304.9" class="st2" width="25.5" height="25.5"/>
	<path class="st5" d="M1035,574.2v29.9c-20.5,8.5-42.5,12.9-64.7,12.8H700.6c-0.1,0.1-0.3,0.3-0.4,0.4l-3.2-0.4H217.2
		c-40.3,0-77.6-10.9-108.1-29.4v-45.7l230.7-26.6h0.2l134.4,11.4l34.8,3l18.1,1.5l37.4,3.2l19.2,1.6l28,2.4l3.9,0.3l20.2,1.7
		l27.4,2.3l38.5,3.3l64.2,5.4l45.2,3.8l74.1,6.3l14.1,1.2l1.5,0.1l1.3,0.1l18.6,1.6l20.4,1.7l2.4,0.2L1035,574.2z"/>
	<polygon class="st6" points="764,573.1 474.9,523.8 463.6,580.5 596.2,596.3 637,601.4 749.3,579.3 	"/>
	<path class="st6" d="M614.3,598.6l144.9-27.2c2.7-0.5,5.3,1.3,5.9,4c0.1,0.3,0.1,0.6,0.1,1l0,0c0,2.4-1.7,4.5-4.1,4.9l-141.5,26.5
		L614.3,598.6z"/>
	<path class="st6" d="M302,375.7l54.4,200.9c1.4,5,5.7,8.7,10.9,9.2L612,609.4c6.9,0.7,13-4.4,13.7-11.3c0.1-1.4,0-2.8-0.3-4.2
		l-59.5-242.4c-1.5-5.9-7-10-13.1-9.5l-239.6,17.9c-6.9,0.5-12.1,6.6-11.5,13.5C301.7,374.2,301.8,375,302,375.7z"/>
</g>
<g id="Layer_2">
</g>
</svg>
