<?xml version="1.0" encoding="utf-8"?>
<!-- Generator: Adobe Illustrator 24.0.0, SVG Export Plug-In . SVG Version: 6.00 Build 0)  -->
<svg version="1.1" id="effd0595-b14c-4c7e-b56f-e463e9379f7d"
	 xmlns="http://www.w3.org/2000/svg" xmlns:xlink="http://www.w3.org/1999/xlink" x="0px" y="0px" viewBox="0 0 913 681"
	 style="enable-background:new 0 0 913 681;" xml:space="preserve">
<style type="text/css">
	.st0{fill:#F1F1F1;}
	.st1{fill:none;stroke:#3F3D56;stroke-width:2;stroke-miterlimit:10;}
	.st2{fill:#3F3D56;}
	.st3{fill:#FF6584;}
	.st4{fill:#6C63FF;}
	.st5{opacity:0.3;fill:#6C63FF;enable-background:new    ;}
</style>
<title>process</title>
<circle class="st0" cx="602.2" cy="49.5" r="14.8"/>
<circle class="st0" cx="515.2" cy="620.5" r="14.8"/>
<circle class="st0" cx="148.2" cy="191.5" r="14.8"/>
<rect x="239.7" y="36.9" transform="matrix(0.2876 -0.9578 0.9578 0.2876 32.5441 651.5333)" class="st0" width="429" height="534"/>
<line class="st1" x1="465.2" y1="141.9" x2="586.3" y2="190.9"/>
<polygon class="st2" points="468.2,152 470.1,151.1 465.9,142.2 475.1,138.7 474.4,136.8 463.2,141.1 "/>
<polygon class="st2" points="577.1,196 576.4,194.1 585.6,190.6 581.4,181.6 583.2,180.8 588.3,191.7 "/>
<circle class="st2" cx="525.7" cy="166.4" r="11"/>
<line class="st1" x1="455.9" y1="481.4" x2="567.5" y2="413.4"/>
<polygon class="st2" points="465.8,484.9 466.3,482.9 456.6,481 459.3,471.5 457.3,470.9 454.1,482.5 "/>
<polygon class="st2" points="566.1,423.8 564.2,423.3 566.9,413.8 557.2,411.8 557.6,409.9 569.4,412.3 "/>
<circle class="st2" cx="511.7" cy="447.4" r="11"/>
<line class="st1" x1="315.7" y1="266" x2="315.8" y2="396.7"/>
<polygon class="st2" points="307.5,272.7 309,274 315.7,266.8 322.4,274 323.9,272.7 315.7,263.9 "/>
<polygon class="st2" points="307.6,390.1 309,388.7 315.8,395.9 322.5,388.7 323.9,390.1 315.8,398.9 "/>
<circle class="st2" cx="315.7" cy="331.4" r="11"/>
<rect x="223" class="st2" width="182" height="226"/>
<path class="st3" d="M302.6,84.1h-41.3c-2.8-16.3-2.8-33,0-49.2h41.3C298,51,298,68,302.6,84.1z"/>
<path class="st4" d="M325.4,109.1h41.3c2.8-16.3,2.8-33,0-49.2h-41.3C330,76,330,93,325.4,109.1z"/>
<path class="st4" d="M286.4,191.1h41.3c2.8-16.3,2.8-33,0-49.2h-41.3C291,158,291,175,286.4,191.1z"/>
<rect x="602" y="215" class="st2" width="182" height="226"/>
<rect x="628" y="263" class="st4" width="130" height="6"/>
<rect x="628" y="284" class="st4" width="130" height="6"/>
<rect x="628" y="305" class="st4" width="130" height="6"/>
<rect x="628" y="326" class="st4" width="130" height="6"/>
<rect x="628" y="347" class="st4" width="130" height="6"/>
<rect x="659" y="369" class="st4" width="68" height="24"/>
<rect x="239" y="447" class="st2" width="182" height="226"/>
<rect x="265.3" y="572.8" class="st4" width="130" height="6"/>
<rect x="265.3" y="593.8" class="st4" width="130" height="6"/>
<rect x="265.3" y="614.8" class="st4" width="130" height="6"/>
<rect x="265.3" y="635.8" class="st4" width="130" height="6"/>
<path class="st5" d="M305.1,527.4h-41.3c-2.8-16.3-2.8-33,0-49.2h41.3C300.5,494.3,300.5,511.4,305.1,527.4z"/>
<rect x="322.3" y="482.8" class="st5" width="76" height="5"/>
<rect x="322.3" y="500.8" class="st5" width="76" height="5"/>
<rect x="322.3" y="518.8" class="st5" width="76" height="5"/>
<rect x="322.3" y="536.8" class="st5" width="76" height="5"/>
</svg>
