<?xml version="1.0" encoding="utf-8"?>
<!-- Generator: Adobe Illustrator 24.0.0, SVG Export Plug-In . SVG Version: 6.00 Build 0)  -->
<svg version="1.1" id="e7b3b0c3-1e4f-480c-906c-c03021e90d10"
	 xmlns="http://www.w3.org/2000/svg" xmlns:xlink="http://www.w3.org/1999/xlink" x="0px" y="0px" viewBox="0 0 991.1 534"
	 style="enable-background:new 0 0 991.1 534;" xml:space="preserve">
<style type="text/css">
	.st0{fill:#F2F2F2;}
	.st1{fill:#6C63FF;}
	.st2{fill:#3F3D56;}
	.st3{fill:#FFFFFF;}
	.st4{fill:none;stroke:#3F3D56;stroke-width:2;stroke-miterlimit:10;}
</style>
<title>professor</title>
<path class="st0" d="M289.6,0L131.7,85.5c11.1,19.2,4.6,43.8-14.6,54.9C98,151.5,73.4,145,62.3,125.8c-0.4-0.7-0.8-1.4-1.1-2.1
	L7.3,152.9l139.4,257.4L429,257.4L289.6,0z"/>
<circle class="st1" cx="94.6" cy="105.7" r="32.6"/>
<rect x="115.5" y="152.7" class="st2" width="788" height="358"/>
<rect x="128.5" y="165.7" class="st3" width="762" height="325"/>
<rect x="739" y="475.2" class="st2" width="74" height="25"/>
<rect x="681" y="494.2" class="st1" width="54" height="7"/>
<path class="st4" d="M511.5,257.7L511.5,257.7z"/>
<path class="st4" d="M623.5,256.7L623.5,256.7z"/>
<path class="st4" d="M623.5,264.7L623.5,264.7z"/>
<path class="st4" d="M828.5,309.7L828.5,309.7z"/>
<path class="st4" d="M809.5,317.7L809.5,317.7z"/>
<path class="st4" d="M584.5,407.7L584.5,407.7z"/>
<circle class="st4" cx="809.5" cy="75.5" r="14.8"/>
</svg>
